<?xml version="1.0" encoding="UTF-8"?><svg id="Layer_1" xmlns="http://www.w3.org/2000/svg" width="219.5968" height="241.7724" viewBox="0 0 219.5968 241.7724"><g><path d="M141.8993,71.9821c3.776-4.268,3.3734-10.8494-.8945-14.6253-4.268-3.776-10.8494-3.3734-14.6253,.8945l-48.682,55.0249c-3.776,4.268-3.3734,10.8494,.8945,14.6253,4.268,3.776,10.8494,3.3734,14.6253-.8945l48.6819-55.0249Z"/><g><path d="M173.6319,109.1374c-.0184,.0712-.0272,.1424-.0439,.2136-7.4027,28.3155-33.154,49.2115-63.7897,49.2115s-56.3858-20.8949-63.7891-49.2093c-.0168-.072-.0257-.1439-.0443-.2158-1.3025-5.0363-6.4411-8.0632-11.4774-6.7607-5.0363,1.3025-8.0632,6.4411-6.7607,11.4773l-.0194,.005c9.4236,36.5437,42.6041,63.5416,82.0909,63.5416s72.6673-26.998,82.0909-63.5416l-.0192-.0049h0c1.3024-5.0363-1.7244-10.175-6.7607-11.4774-5.0363-1.3025-10.175,1.7244-11.4774,6.7607Z"/><path d="M27.7074,71.3987l.0193,.005h0c-1.3025,5.0363,1.7244,10.175,6.7607,11.4774,5.0363,1.3025,10.175-1.7244,11.4774-6.7607,.0186-.0719,.0275-.1438,.0443-.2158,7.4034-28.3144,33.1542-49.2093,63.7891-49.2093s56.387,20.896,63.7897,49.2115c.0167,.0712,.0255,.1425,.0439,.2136,1.3025,5.0363,6.4411,8.0632,11.4774,6.7607,5.0363-1.3024,8.0632-6.4411,6.7607-11.4774l.0192-.005C182.4656,34.8551,149.2851,7.8572,109.7984,7.8572S37.131,34.8551,27.7074,71.3987Z"/></g></g><g><polygon points="13.3486 227.2941 26.7995 212.0705 26.7995 206.3878 6.3625 206.3878 6.3625 211.9663 18.5621 211.9663 18.5621 212.1227 4.7984 227.7111 4.7984 233.1332 27.4773 233.1332 27.4773 227.4505 13.3486 227.4505 13.3486 227.2941"/><path d="M42.0803,205.6579c-7.8203,0-13.1902,6.152-13.1902,14.0765,0,7.9767,5.005,14.1808,13.868,14.1808,6.8818,0,11.1048-4.0144,12.0953-8.7587h-6.9861c-.782,2.0333-2.3982,3.2845-5.1614,3.2845-4.0144,0-6.3083-2.5546-6.8297-6.6733h19.3943c0-9.5407-4.5878-16.1097-13.1902-16.1097Zm-6.0998,11.2091c.6256-3.4931,2.4504-5.7349,6.2041-5.7349,3.2324,0,5.4742,2.3461,5.6827,5.7349h-11.8868Z"/><path d="M73.8098,205.6579c-3.6494,0-6.0998,1.512-7.9245,4.3793h-.1564v-3.6494h-6.9353v26.7454h7.0917v-15.1714c0-3.6494,2.2939-6.1519,5.422-6.1519,2.9717,0,4.64,2.0333,4.64,4.9006v16.4226h7.0904v-17.4653c0-5.8391-3.7016-10.0099-9.2279-10.0099Z"/><path d="M100.4391,216.8671c-3.8058-.7821-7.3511-.9906-7.3511-3.2845,0-1.929,1.8248-2.9717,4.5879-2.9717,3.0238,0,4.8485,1.0428,5.1613,3.9101h6.4127c-.5214-5.3699-4.4315-8.863-11.4698-8.863-6.0998,0-10.8962,2.7632-10.8962,8.5502,0,5.8392,4.6922,7.1426,9.4886,8.081,3.6494,.7299,7.0382,.9906,7.0382,3.5452,0,1.8769-1.7726,3.076-4.9006,3.076-3.1802,0-5.37-1.3556-5.8392-4.4315h-6.569c.4171,5.6827,4.7443,9.4365,12.5124,9.4365,6.6733,0,11.2612-3.2324,11.2612-8.6023,0-6.2562-4.9528-7.5075-9.4365-8.4459Z"/><path d="M125.0417,205.6579c-7.8203,0-13.1902,6.152-13.1902,14.0765,0,7.9767,5.005,14.1808,13.868,14.1808,6.8818,0,11.1048-4.0144,12.0953-8.7587h-6.9861c-.782,2.0333-2.3982,3.2845-5.1613,3.2845-4.0144,0-6.3084-2.5546-6.8298-6.6733h19.3943c0-9.5407-4.5878-16.1097-13.1902-16.1097Zm-6.0998,11.2091c.6256-3.4931,2.4504-5.7349,6.2041-5.7349,3.2324,0,5.4742,2.3461,5.6827,5.7349h-11.8868Z"/><path d="M164.2929,229.171v-13.6073c0-6.2563-3.2324-9.8535-11.2611-9.8535-7.8203,0-11.3134,4.1186-11.5219,8.8108h6.3084c.2085-2.5546,1.8247-3.7537,5.1613-3.7537,2.9717,0,4.4836,1.2513,4.4836,3.1802,0,2.0333-2.0333,2.3983-6.4647,3.0238-5.9435,.8342-10.7399,2.7111-10.7399,8.6024,0,5.3177,3.858,8.1852,9.3322,8.1852,4.5878,0,6.5169-1.5641,7.8724-3.5973h.1043c.1564,1.1992,.4171,2.4504,.8342,2.9717h6.8297v-.2607c-.6257-.4692-.9385-1.6683-.9385-3.7016Zm-6.6733-5.4742c0,2.6068-2.2418,5.1092-6.3083,5.1092-2.5025,0-4.1708-.8863-4.1708-3.3888s1.8247-3.3366,5.5263-4.1708c1.7726-.4171,3.7016-.8342,4.9528-1.5641v4.0144Z"/><path d="M181.07,228.2325c-4.3272,0-6.3605-3.3888-6.3605-8.4459,0-5.1614,2.1897-8.446,6.4648-8.446,2.6068,0,4.4314,1.7727,4.9007,4.1187h6.934c-.9385-5.787-5.2135-9.8014-12.1475-9.8014-8.1331,0-13.3466,6.152-13.3466,14.1287s5.2656,14.1286,13.7115,14.1286c7.1426,0,11.574-4.5357,12.0432-10.2184h-6.8297c-.4692,3.0238-2.5025,4.5357-5.3699,4.5357Z"/><path d="M214.7984,211.9989v-5.611h-20.437v5.611h5.7921v14.7738c0,5.0571,3.8058,6.4126,7.2468,6.4126,2.8153,0,4.4315-.1043,4.4315-.1043v-5.2135s-1.1992,.0522-2.0855,.0522c-1.5641,0-2.6589-.6778-2.6589-2.6589v-13.2619h7.7109Z"/></g></svg>